<?xml version="1.0" standalone="no"?>
<!DOCTYPE svg PUBLIC "-//W3C//DTD SVG 20010904//EN"
 "http://www.w3.org/TR/2001/REC-SVG-20010904/DTD/svg10.dtd">
<svg version="1.0" xmlns="http://www.w3.org/2000/svg"
 width="148.000000pt" height="148.000000pt" viewBox="0 0 148.000000 148.000000"
 preserveAspectRatio="xMidYMid meet">
<metadata>
Created by potrace 1.14, written by Peter Selinger 2001-2017
</metadata>
<g transform="translate(0.000000,148.000000) scale(0.100000,-0.100000)"
fill="#000000" stroke="none">
<path d="M648 1287 c-123 -35 -227 -153 -244 -277 -3 -25 -8 -47 -10 -49 -2
-2 -90 -4 -195 -4 -156 0 -192 -3 -196 -14 -11 -28 19 -96 63 -144 73 -77 256
-155 411 -175 29 -4 57 -12 61 -18 5 -6 19 -49 32 -96 13 -47 29 -88 35 -92 7
-4 11 -36 10 -85 -2 -83 4 -103 41 -140 19 -19 33 -23 88 -23 65 0 66 0 95 41
27 37 30 46 28 116 -2 48 2 80 9 88 7 6 23 51 36 100 13 49 30 92 38 96 8 4
47 12 85 19 87 15 202 53 276 92 95 49 169 139 169 206 l0 29 -182 1 c-101 0
-190 1 -199 1 -12 1 -18 15 -23 49 -14 105 -95 214 -194 259 -64 30 -167 38
-234 20z"/>
</g>
</svg>
